<?xml version="1.0" encoding="UTF-8"?>
<!-- Generated by Pixelmator Pro 2.4.3 -->
<svg width="1333" height="1333" viewBox="0 0 1333 1333" xmlns="http://www.w3.org/2000/svg" xmlns:xlink="http://www.w3.org/1999/xlink">
    <g id="f3f3f3ff">
        <path id="Path" fill="#000000" stroke="none" d="M 402.853363 412.386658 C 434.906647 411.919983 466.986664 412.080017 499.053345 411.973328 C 480.65332 525.333313 460.160004 638.34668 440.946655 751.573303 C 408.853363 751.493347 376.720001 752.426697 344.666656 750.320007 C 363.373322 637.559998 383.23999 525 402.853363 412.386658 Z"/>
        <path id="path1" fill="#000000" stroke="none" d="M 561.880005 412.226685 C 592.93335 412.06665 624.053345 412.039978 655.133362 412.320007 C 636.440002 525.47998 616 638.359985 597.146667 751.493347 C 565.06665 751.533386 532.93335 752.360046 500.880005 750.34668 C 518.440002 640.813293 538.453308 531.679993 556.919983 422.306702 C 557.41333 418.613342 557.82666 413.76001 561.880005 412.226685 Z"/>
        <path id="path2" fill="#000000" stroke="none" d="M 715.426697 412.306702 C 747.399963 412.080017 779.386658 411.919983 811.360046 412.34668 C 795.493347 504.58667 779.626648 596.82666 763.666687 689.040039 C 760.399963 709.76001 755.786682 730.293274 753.693359 751.186707 C 721.559998 751.946716 689.399963 752.106689 657.306702 750.386658 C 665.946655 686.693359 678.82666 623.666687 688.986633 560.213318 C 698.093323 510.960022 705.253357 461.359985 715.426697 412.306702 Z"/>
        <path id="path3" fill="#000000" stroke="none" d="M 872.200012 412.06665 C 903.506653 412.146667 934.82666 411.93335 966.133301 412.279968 C 965.746643 425.906677 962.546631 439.226685 960.506653 452.65332 C 943.053284 552.359985 926.41333 652.213318 908.360046 751.813293 C 876.306641 751.293274 844.213318 752.466614 812.213318 750.23999 C 831.293274 639.373352 850.58667 528.52002 869.76001 417.706665 C 870.360046 415.733337 871.293274 413.906677 872.200012 412.06665 Z"/>
        <path id="path4" fill="#000000" stroke="none" d="M 642.919983 811.253357 C 728 810.799988 813.080017 810.373352 898.159973 811.866699 C 892.306641 843.559937 887.23999 875.400024 881.040039 907.026733 C 829.600037 907.866699 778.146667 905.986694 726.706726 906.626587 C 693.506653 904.626587 660.23999 906.400024 627.013367 905.493286 C 631.693298 873.973267 637.76001 842.693359 642.919983 811.253357 Z"/>
    </g>
</svg>
